<svg id="Component_11_1" data-name="Component 11 – 1" xmlns="http://www.w3.org/2000/svg" width="42" height="42" viewBox="0 0 42 42">
  <circle id="Ellipse_2" data-name="Ellipse 2" cx="21" cy="21" r="21" fill="#fff"/>
  <path id="Icon_material-fingerprint" data-name="Icon material-fingerprint" d="M26.715,6.7a.7.7,0,0,1-.345-.09A17.163,17.163,0,0,0,18.015,4.5,17.161,17.161,0,0,0,9.66,6.615a.752.752,0,1,1-.72-1.32A19.086,19.086,0,0,1,27.06,5.28.759.759,0,0,1,26.715,6.7ZM5.25,14.58a.782.782,0,0,1-.435-.135.748.748,0,0,1-.18-1.05,15.508,15.508,0,0,1,5.625-4.9,17.315,17.315,0,0,1,15.465-.015A15.567,15.567,0,0,1,31.35,13.35a.753.753,0,1,1-1.23.87,14.082,14.082,0,0,0-5.085-4.41,15.806,15.806,0,0,0-14.1.015,14.23,14.23,0,0,0-5.1,4.44.654.654,0,0,1-.585.315Zm9.375,18.1a.7.7,0,0,1-.525-.225,15.164,15.164,0,0,1-3.015-3.96A13.315,13.315,0,0,1,9.51,21.99,8.307,8.307,0,0,1,18,13.9a8.307,8.307,0,0,1,8.49,8.085.75.75,0,0,1-1.5,0A6.8,6.8,0,0,0,18,15.4a6.8,6.8,0,0,0-6.99,6.585,11.751,11.751,0,0,0,1.4,5.775A14.2,14.2,0,0,0,15.18,31.4a.77.77,0,0,1,0,1.065A.823.823,0,0,1,14.625,32.685ZM25.38,29.91a8.078,8.078,0,0,1-4.65-1.335,7.986,7.986,0,0,1-3.57-6.585.75.75,0,0,1,1.5,0,6.452,6.452,0,0,0,2.91,5.34,6.577,6.577,0,0,0,3.81,1.065,9.913,9.913,0,0,0,1.56-.15A.753.753,0,1,1,27.2,29.73a10.243,10.243,0,0,1-1.815.18ZM22.365,33a.878.878,0,0,1-.195-.03,11.7,11.7,0,0,1-5.58-3.15,10.945,10.945,0,0,1-3.255-7.83,4.523,4.523,0,0,1,4.62-4.41,4.523,4.523,0,0,1,4.62,4.41,3.128,3.128,0,0,0,6.24,0c0-5.655-4.875-10.245-10.875-10.245A10.951,10.951,0,0,0,8.025,17.79a9.65,9.65,0,0,0-.885,4.2,14.906,14.906,0,0,0,1.005,5.415.732.732,0,0,1-.435.96.744.744,0,0,1-.96-.435,16.711,16.711,0,0,1-1.095-5.94,11.269,11.269,0,0,1,1.02-4.86,12.448,12.448,0,0,1,11.265-6.9c6.825,0,12.375,5.265,12.375,11.745a4.625,4.625,0,0,1-9.24,0,3.021,3.021,0,0,0-3.12-2.91,3.021,3.021,0,0,0-3.12,2.91,9.446,9.446,0,0,0,2.8,6.765,10.2,10.2,0,0,0,4.905,2.775.745.745,0,0,1,.525.915.732.732,0,0,1-.7.57Z" transform="translate(3.505 3)"/>
</svg>
